<?xml version="1.0" encoding="UTF-8" standalone="no"?>
<svg xmlns="http://www.w3.org/2000/svg" xmlns:xlink="http://www.w3.org/1999/xlink" width="8.5in" height="11in" viewBox="0 0 2550 3300">
  <title>Freedom Lab NYC Sponsorship Packages</title>
  <desc>US Letter cover with abstract green and white torchlight rays on a rounded black field.</desc>
  <defs>
    <radialGradient id="outerGreen" cx="50%" cy="45%" r="78%">
      <stop offset="0" stop-color="#4BE62B"/>
      <stop offset="0.52" stop-color="#32D011"/>
      <stop offset="1" stop-color="#229808"/>
    </radialGradient>
    <linearGradient id="cardField" x1="0" y1="0" x2="0" y2="1">
      <stop offset="0" stop-color="#060806"/>
      <stop offset="0.48" stop-color="#071009"/>
      <stop offset="1" stop-color="#020403"/>
    </linearGradient>
    <radialGradient id="cardVignette" cx="50%" cy="57%" r="72%">
      <stop offset="0" stop-color="#17341B" stop-opacity="0.3"/>
      <stop offset="0.55" stop-color="#071009" stop-opacity="0.08"/>
      <stop offset="1" stop-color="#000000" stop-opacity="0.58"/>
    </radialGradient>

    <linearGradient id="rayWhite" gradientUnits="userSpaceOnUse" x1="0" y1="250" x2="0" y2="2430">
      <stop offset="0" stop-color="#FFFFFF" stop-opacity="0.1"/>
      <stop offset="0.35" stop-color="#F0FFE9" stop-opacity="0.56"/>
      <stop offset="0.76" stop-color="#FFFFFF" stop-opacity="0.98"/>
      <stop offset="1" stop-color="#D8FFC7" stop-opacity="0.12"/>
    </linearGradient>
    <linearGradient id="rayPale" gradientUnits="userSpaceOnUse" x1="0" y1="250" x2="0" y2="2430">
      <stop offset="0" stop-color="#D8FFC7" stop-opacity="0.08"/>
      <stop offset="0.42" stop-color="#C8FFB3" stop-opacity="0.47"/>
      <stop offset="0.79" stop-color="#E7FFDD" stop-opacity="0.86"/>
      <stop offset="1" stop-color="#8DFF56" stop-opacity="0.08"/>
    </linearGradient>
    <linearGradient id="rayGreen" gradientUnits="userSpaceOnUse" x1="0" y1="250" x2="0" y2="2460">
      <stop offset="0" stop-color="#32D011" stop-opacity="0.05"/>
      <stop offset="0.43" stop-color="#43E921" stop-opacity="0.62"/>
      <stop offset="0.78" stop-color="#62FF3D" stop-opacity="0.93"/>
      <stop offset="1" stop-color="#32D011" stop-opacity="0.06"/>
    </linearGradient>
    <linearGradient id="rayGreenDim" gradientUnits="userSpaceOnUse" x1="0" y1="500" x2="0" y2="2500">
      <stop offset="0" stop-color="#32D011" stop-opacity="0"/>
      <stop offset="0.72" stop-color="#4BE72A" stop-opacity="0.48"/>
      <stop offset="1" stop-color="#32D011" stop-opacity="0.04"/>
    </linearGradient>
    <linearGradient id="stemBright" x1="0" y1="0" x2="0" y2="1">
      <stop offset="0" stop-color="#F4FFEF" stop-opacity="0.95"/>
      <stop offset="0.26" stop-color="#8DFF56" stop-opacity="0.76"/>
      <stop offset="1" stop-color="#32D011" stop-opacity="0"/>
    </linearGradient>
    <linearGradient id="stemGreen" x1="0" y1="0" x2="0" y2="1">
      <stop offset="0" stop-color="#8DFF56" stop-opacity="0.73"/>
      <stop offset="0.48" stop-color="#32D011" stop-opacity="0.33"/>
      <stop offset="1" stop-color="#32D011" stop-opacity="0"/>
    </linearGradient>
    <radialGradient id="bloom" cx="50%" cy="50%" r="50%">
      <stop offset="0" stop-color="#FFFFFF" stop-opacity="1"/>
      <stop offset="0.12" stop-color="#F2FFED" stop-opacity="0.98"/>
      <stop offset="0.34" stop-color="#B7FF93" stop-opacity="0.8"/>
      <stop offset="0.62" stop-color="#55EE32" stop-opacity="0.42"/>
      <stop offset="1" stop-color="#32D011" stop-opacity="0"/>
    </radialGradient>

    <filter id="bloomBlur" x="-70%" y="-70%" width="240%" height="240%" color-interpolation-filters="sRGB">
      <feGaussianBlur stdDeviation="92"/>
    </filter>
    <filter id="softRay" x="-20%" y="-10%" width="140%" height="120%" color-interpolation-filters="sRGB">
      <feGaussianBlur stdDeviation="7"/>
    </filter>
    <filter id="noise" x="0" y="0" width="100%" height="100%" color-interpolation-filters="sRGB">
      <feTurbulence type="fractalNoise" baseFrequency="0.43" numOctaves="4" seed="27" stitchTiles="stitch" result="n"/>
      <feColorMatrix in="n" type="matrix" values="1 0 0 0 0  0 1 0 0 0  0 0 1 0 0  0 0 0 .18 0"/>
    </filter>
    <clipPath id="cardClip"><rect x="430" y="245" width="1690" height="2810" rx="158"/></clipPath>
    <mask id="rayFade">
      <linearGradient id="fadeGradient" x1="0" y1="0" x2="0" y2="1">
        <stop offset="0" stop-color="white" stop-opacity="0.93"/>
        <stop offset="0.78" stop-color="white" stop-opacity="1"/>
        <stop offset="1" stop-color="black" stop-opacity="0.35"/>
      </linearGradient>
      <rect x="430" y="245" width="1690" height="2810" fill="url(#fadeGradient)"/>
    </mask>
  </defs>

  <rect width="2550" height="3300" fill="url(#outerGreen)"/>
  <rect width="2550" height="3300" fill="#FFFFFF" filter="url(#noise)" opacity="0.25" style="mix-blend-mode:soft-light"/>

  <text x="120" y="118" fill="#071306" fill-opacity="0.56" font-family="Helvetica Neue, Helvetica, Arial, sans-serif" font-size="17" font-weight="600" letter-spacing="7">PARTNERSHIP BRIEF</text>
  <text x="2430" y="3202" text-anchor="end" fill="#071306" fill-opacity="0.56" font-family="Helvetica Neue, Helvetica, Arial, sans-serif" font-size="17" font-weight="600" letter-spacing="7">NEW YORK CITY · 2026</text>

  <rect x="430" y="245" width="1690" height="2810" rx="158" fill="url(#cardField)" stroke="#071108" stroke-width="6"/>
  <g clip-path="url(#cardClip)">
    <rect x="430" y="245" width="1690" height="2810" fill="url(#cardVignette)"/>

    <!-- Lateral rays: broad, quiet, and low in the hierarchy. -->
    <path d="M1262 2364 C1012 2302 706 2126 402 1840 L402 2198 C742 2360 1010 2440 1238 2476 Z" fill="url(#rayGreenDim)" opacity="0.76"/>
    <path d="M1266 2370 C1038 2240 830 2012 612 1690 L496 1760 C724 2112 944 2352 1238 2470 Z" fill="url(#rayPale)" opacity="0.42"/>
    <path d="M1286 2375 C1516 2220 1792 2008 2152 1760 L2152 2102 C1852 2282 1580 2404 1312 2486 Z" fill="url(#rayGreen)" opacity="0.62"/>
    <path d="M1302 2382 C1584 2304 1860 2180 2154 2028 L2154 2290 C1832 2400 1566 2464 1310 2516 Z" fill="url(#rayGreenDim)" opacity="0.56"/>

    <!-- Tall curved rays: deliberately asymmetric around the focal point. -->
    <path d="M1168 2420 C1048 2035 1010 1510 1104 968 C1150 710 1224 454 1322 218 L1564 218 C1422 658 1345 1080 1326 1508 C1306 1894 1334 2200 1354 2432 Z" fill="url(#rayPale)" opacity="0.88"/>
    <path d="M1198 2436 C1172 2050 1220 1544 1340 1046 C1410 752 1502 468 1614 218 L1842 218 C1650 656 1500 1110 1428 1572 C1366 1964 1362 2246 1372 2440 Z" fill="url(#rayWhite)" opacity="0.98" filter="url(#softRay)"/>
    <path d="M1330 2438 C1438 2038 1642 1572 1878 1170 C1982 994 2096 832 2228 672 L2228 1168 C2028 1472 1848 1800 1706 2134 C1640 2288 1588 2400 1538 2504 Z" fill="url(#rayGreen)" opacity="0.82"/>
    <path d="M1398 2452 C1580 2186 1782 1940 2038 1698 C2114 1626 2184 1566 2230 1532 L2230 1896 C1970 2110 1744 2292 1518 2524 Z" fill="url(#rayGreen)" opacity="0.62"/>
    <path d="M1218 2416 C1048 2164 918 1884 814 1560 C784 1468 754 1380 726 1290 L900 1212 C1024 1602 1140 1962 1306 2398 Z" fill="url(#rayPale)" opacity="0.37"/>

    <!-- Fine edge highlights. -->
    <path d="M1710 224 C1534 682 1414 1178 1366 1662 C1336 1968 1336 2204 1368 2384" fill="none" stroke="#E4FFD9" stroke-opacity="0.82" stroke-width="8"/>
    <path d="M2226 1308 C1990 1670 1784 2024 1540 2436" fill="none" stroke="#8DFF56" stroke-opacity="0.72" stroke-width="7"/>

    <!-- Structured stems below the light source. -->
    <path d="M1152 2388 L1248 2388 L1248 2862 L1158 2862 Z" fill="url(#stemGreen)" opacity="0.46"/>
    <path d="M1256 2378 L1358 2378 L1362 2862 L1260 2862 Z" fill="url(#stemBright)" opacity="0.98"/>
    <path d="M1368 2382 L1466 2382 L1480 2862 L1378 2862 Z" fill="url(#stemGreen)" opacity="0.7"/>
    <path d="M1050 2406 L1138 2406 L1128 2830 L1052 2830 Z" fill="url(#stemGreen)" opacity="0.22"/>

    <!-- Concentrated light source. -->
    <ellipse cx="1320" cy="2398" rx="430" ry="360" fill="url(#bloom)" filter="url(#bloomBlur)" opacity="0.92"/>
    <ellipse cx="1320" cy="2398" rx="215" ry="176" fill="url(#bloom)" opacity="0.95"/>


    <!-- Fixed seeded grain, separate from geometry for deterministic editing. -->
    <rect x="430" y="245" width="1690" height="2810" fill="#FFFFFF" filter="url(#noise)" opacity="0.22" style="mix-blend-mode:soft-light"/>
  </g>

  <text x="1275" y="2922" text-anchor="middle" font-family="Helvetica Neue, Helvetica, Arial, sans-serif" font-size="38" font-weight="500" letter-spacing="26" fill="#F4F7F2">FREEDOM LAB <tspan fill="#32D011">NYC</tspan></text>
  <text x="1275" y="2976" text-anchor="middle" font-family="Helvetica Neue, Helvetica, Arial, sans-serif" font-size="17" font-weight="500" letter-spacing="13" fill="#F4F7F2" fill-opacity="0.56">SPONSORSHIP PACKAGES</text>
</svg>